<mxfile host="app.diagrams.net" agent="Mozilla/5.0 (Windows NT 10.0; Win64; x64) AppleWebKit/537.36 (KHTML, like Gecko) Chrome/133.0.0.0 Safari/537.36" version="26.0.15">
  <diagram name="Halaman-1" id="7-t7RWmNcDvpxJYDzhYv">
    <mxGraphModel dx="3160" dy="1238" grid="1" gridSize="10" guides="1" tooltips="1" connect="1" arrows="1" fold="1" page="1" pageScale="1" pageWidth="827" pageHeight="1169" math="0" shadow="0">
      <root>
        <mxCell id="0" />
        <mxCell id="1" parent="0" />
        <mxCell id="-TgtOR13DhH1R4mYC1Ao-2" style="edgeStyle=orthogonalEdgeStyle;rounded=0;orthogonalLoop=1;jettySize=auto;html=1;" parent="1" source="-TgtOR13DhH1R4mYC1Ao-1" edge="1">
          <mxGeometry relative="1" as="geometry">
            <mxPoint x="90" y="150" as="targetPoint" />
          </mxGeometry>
        </mxCell>
        <mxCell id="-TgtOR13DhH1R4mYC1Ao-1" value="START" style="strokeWidth=2;html=1;shape=mxgraph.flowchart.terminator;whiteSpace=wrap;" parent="1" vertex="1">
          <mxGeometry x="40" y="40" width="100" height="60" as="geometry" />
        </mxCell>
        <mxCell id="-TgtOR13DhH1R4mYC1Ao-6" style="edgeStyle=orthogonalEdgeStyle;rounded=0;orthogonalLoop=1;jettySize=auto;html=1;" parent="1" source="-TgtOR13DhH1R4mYC1Ao-5" edge="1">
          <mxGeometry relative="1" as="geometry">
            <mxPoint x="93" y="272" as="targetPoint" />
          </mxGeometry>
        </mxCell>
        <mxCell id="-TgtOR13DhH1R4mYC1Ao-5" value="INPUT a" style="shape=parallelogram;perimeter=parallelogramPerimeter;whiteSpace=wrap;html=1;fixedSize=1;" parent="1" vertex="1">
          <mxGeometry x="23" y="152" width="140" height="70" as="geometry" />
        </mxCell>
        <mxCell id="-TgtOR13DhH1R4mYC1Ao-8" style="edgeStyle=orthogonalEdgeStyle;rounded=0;orthogonalLoop=1;jettySize=auto;html=1;" parent="1" source="-TgtOR13DhH1R4mYC1Ao-7" edge="1">
          <mxGeometry relative="1" as="geometry">
            <mxPoint x="98" y="372" as="targetPoint" />
          </mxGeometry>
        </mxCell>
        <mxCell id="-TgtOR13DhH1R4mYC1Ao-7" value="INPUT b" style="shape=parallelogram;perimeter=parallelogramPerimeter;whiteSpace=wrap;html=1;fixedSize=1;" parent="1" vertex="1">
          <mxGeometry x="23" y="272" width="150" height="60" as="geometry" />
        </mxCell>
        <mxCell id="-TgtOR13DhH1R4mYC1Ao-10" style="edgeStyle=orthogonalEdgeStyle;rounded=0;orthogonalLoop=1;jettySize=auto;html=1;" parent="1" source="-TgtOR13DhH1R4mYC1Ao-9" edge="1">
          <mxGeometry relative="1" as="geometry">
            <mxPoint x="98" y="502" as="targetPoint" />
          </mxGeometry>
        </mxCell>
        <mxCell id="-TgtOR13DhH1R4mYC1Ao-9" value="INPUT c" style="shape=parallelogram;perimeter=parallelogramPerimeter;whiteSpace=wrap;html=1;fixedSize=1;" parent="1" vertex="1">
          <mxGeometry x="23" y="377" width="150" height="65" as="geometry" />
        </mxCell>
        <mxCell id="aCMbbdQ5NFtw3h7Wa9J0-2" style="edgeStyle=orthogonalEdgeStyle;rounded=0;orthogonalLoop=1;jettySize=auto;html=1;" parent="1" source="aCMbbdQ5NFtw3h7Wa9J0-1" edge="1">
          <mxGeometry relative="1" as="geometry">
            <mxPoint x="99.99999999999989" y="610" as="targetPoint" />
          </mxGeometry>
        </mxCell>
        <mxCell id="aCMbbdQ5NFtw3h7Wa9J0-1" value="d = b ** 2 - 4 * a * c" style="rounded=0;whiteSpace=wrap;html=1;" parent="1" vertex="1">
          <mxGeometry x="40" y="500" width="120" height="60" as="geometry" />
        </mxCell>
        <mxCell id="aCMbbdQ5NFtw3h7Wa9J0-4" style="edgeStyle=orthogonalEdgeStyle;rounded=0;orthogonalLoop=1;jettySize=auto;html=1;" parent="1" source="aCMbbdQ5NFtw3h7Wa9J0-3" edge="1">
          <mxGeometry relative="1" as="geometry">
            <mxPoint x="270" y="690" as="targetPoint" />
          </mxGeometry>
        </mxCell>
        <mxCell id="aCMbbdQ5NFtw3h7Wa9J0-5" value="YES" style="edgeLabel;html=1;align=center;verticalAlign=middle;resizable=0;points=[];" parent="aCMbbdQ5NFtw3h7Wa9J0-4" vertex="1" connectable="0">
          <mxGeometry x="0.0275" relative="1" as="geometry">
            <mxPoint as="offset" />
          </mxGeometry>
        </mxCell>
        <mxCell id="aCMbbdQ5NFtw3h7Wa9J0-7" style="edgeStyle=orthogonalEdgeStyle;rounded=0;orthogonalLoop=1;jettySize=auto;html=1;" parent="1" source="aCMbbdQ5NFtw3h7Wa9J0-3" edge="1">
          <mxGeometry relative="1" as="geometry">
            <mxPoint x="100.00000000000011" y="840" as="targetPoint" />
          </mxGeometry>
        </mxCell>
        <mxCell id="aCMbbdQ5NFtw3h7Wa9J0-11" value="NO" style="edgeLabel;html=1;align=center;verticalAlign=middle;resizable=0;points=[];" parent="aCMbbdQ5NFtw3h7Wa9J0-7" vertex="1" connectable="0">
          <mxGeometry x="-0.0598" relative="1" as="geometry">
            <mxPoint as="offset" />
          </mxGeometry>
        </mxCell>
        <mxCell id="aCMbbdQ5NFtw3h7Wa9J0-3" value="d &amp;gt;= 0" style="rhombus;whiteSpace=wrap;html=1;" parent="1" vertex="1">
          <mxGeometry x="24" y="610" width="152" height="160" as="geometry" />
        </mxCell>
        <mxCell id="aCMbbdQ5NFtw3h7Wa9J0-14" style="edgeStyle=orthogonalEdgeStyle;rounded=0;orthogonalLoop=1;jettySize=auto;html=1;" parent="1" source="aCMbbdQ5NFtw3h7Wa9J0-6" edge="1">
          <mxGeometry relative="1" as="geometry">
            <mxPoint x="540" y="690" as="targetPoint" />
          </mxGeometry>
        </mxCell>
        <mxCell id="aCMbbdQ5NFtw3h7Wa9J0-6" value="PRINT Akar Real atau Nyata" style="shape=parallelogram;perimeter=parallelogramPerimeter;whiteSpace=wrap;html=1;fixedSize=1;" parent="1" vertex="1">
          <mxGeometry x="260" y="645" width="200" height="90" as="geometry" />
        </mxCell>
        <mxCell id="aCMbbdQ5NFtw3h7Wa9J0-25" style="edgeStyle=orthogonalEdgeStyle;rounded=0;orthogonalLoop=1;jettySize=auto;html=1;endArrow=none;startFill=0;" parent="1" source="aCMbbdQ5NFtw3h7Wa9J0-10" edge="1">
          <mxGeometry relative="1" as="geometry">
            <mxPoint x="100" y="1010.0000000000002" as="targetPoint" />
          </mxGeometry>
        </mxCell>
        <mxCell id="aCMbbdQ5NFtw3h7Wa9J0-10" value="PRINT Akar Imajiner atau Tidak Nyata atau Khayal" style="shape=parallelogram;perimeter=parallelogramPerimeter;whiteSpace=wrap;html=1;fixedSize=1;" parent="1" vertex="1">
          <mxGeometry x="-30" y="840" width="260" height="85" as="geometry" />
        </mxCell>
        <mxCell id="aCMbbdQ5NFtw3h7Wa9J0-18" style="edgeStyle=orthogonalEdgeStyle;rounded=0;orthogonalLoop=1;jettySize=auto;html=1;entryX=0;entryY=0.5;entryDx=0;entryDy=0;" parent="1" source="aCMbbdQ5NFtw3h7Wa9J0-15" target="aCMbbdQ5NFtw3h7Wa9J0-17" edge="1">
          <mxGeometry relative="1" as="geometry" />
        </mxCell>
        <mxCell id="aCMbbdQ5NFtw3h7Wa9J0-19" value="YES" style="edgeLabel;html=1;align=center;verticalAlign=middle;resizable=0;points=[];" parent="aCMbbdQ5NFtw3h7Wa9J0-18" vertex="1" connectable="0">
          <mxGeometry x="-0.3095" y="-1" relative="1" as="geometry">
            <mxPoint as="offset" />
          </mxGeometry>
        </mxCell>
        <mxCell id="aCMbbdQ5NFtw3h7Wa9J0-20" style="edgeStyle=orthogonalEdgeStyle;rounded=0;orthogonalLoop=1;jettySize=auto;html=1;" parent="1" source="aCMbbdQ5NFtw3h7Wa9J0-15" edge="1">
          <mxGeometry relative="1" as="geometry">
            <mxPoint x="630" y="860" as="targetPoint" />
          </mxGeometry>
        </mxCell>
        <mxCell id="aCMbbdQ5NFtw3h7Wa9J0-21" value="NO" style="edgeLabel;html=1;align=center;verticalAlign=middle;resizable=0;points=[];" parent="aCMbbdQ5NFtw3h7Wa9J0-20" vertex="1" connectable="0">
          <mxGeometry x="-0.1276" y="-3" relative="1" as="geometry">
            <mxPoint as="offset" />
          </mxGeometry>
        </mxCell>
        <mxCell id="aCMbbdQ5NFtw3h7Wa9J0-15" value="d &amp;lt; 0" style="rhombus;whiteSpace=wrap;html=1;" parent="1" vertex="1">
          <mxGeometry x="540" y="610" width="180" height="160" as="geometry" />
        </mxCell>
        <mxCell id="aCMbbdQ5NFtw3h7Wa9J0-23" style="edgeStyle=orthogonalEdgeStyle;rounded=0;orthogonalLoop=1;jettySize=auto;html=1;endArrow=none;startFill=0;" parent="1" source="aCMbbdQ5NFtw3h7Wa9J0-17" edge="1">
          <mxGeometry relative="1" as="geometry">
            <mxPoint x="925" y="1010" as="targetPoint" />
          </mxGeometry>
        </mxCell>
        <mxCell id="aCMbbdQ5NFtw3h7Wa9J0-17" value="PRINT Akar Real dan Berlainan" style="shape=parallelogram;perimeter=parallelogramPerimeter;whiteSpace=wrap;html=1;fixedSize=1;" parent="1" vertex="1">
          <mxGeometry x="810" y="650" width="230" height="80" as="geometry" />
        </mxCell>
        <mxCell id="aCMbbdQ5NFtw3h7Wa9J0-24" style="edgeStyle=orthogonalEdgeStyle;rounded=0;orthogonalLoop=1;jettySize=auto;html=1;endArrow=none;startFill=0;" parent="1" source="aCMbbdQ5NFtw3h7Wa9J0-22" edge="1">
          <mxGeometry relative="1" as="geometry">
            <mxPoint x="630" y="1010.0000000000002" as="targetPoint" />
          </mxGeometry>
        </mxCell>
        <mxCell id="aCMbbdQ5NFtw3h7Wa9J0-22" value="PRINT Akar Real dan Kembar" style="shape=parallelogram;perimeter=parallelogramPerimeter;whiteSpace=wrap;html=1;fixedSize=1;" parent="1" vertex="1">
          <mxGeometry x="490" y="860" width="280" height="75" as="geometry" />
        </mxCell>
        <mxCell id="aCMbbdQ5NFtw3h7Wa9J0-26" value="" style="endArrow=none;html=1;rounded=0;" parent="1" edge="1">
          <mxGeometry width="50" height="50" relative="1" as="geometry">
            <mxPoint x="100" y="1010" as="sourcePoint" />
            <mxPoint x="930" y="1010" as="targetPoint" />
          </mxGeometry>
        </mxCell>
        <mxCell id="aCMbbdQ5NFtw3h7Wa9J0-27" value="" style="endArrow=classic;html=1;rounded=0;" parent="1" edge="1">
          <mxGeometry width="50" height="50" relative="1" as="geometry">
            <mxPoint x="470" y="1010" as="sourcePoint" />
            <mxPoint x="470" y="1090" as="targetPoint" />
          </mxGeometry>
        </mxCell>
        <mxCell id="aCMbbdQ5NFtw3h7Wa9J0-28" value="END" style="strokeWidth=2;html=1;shape=mxgraph.flowchart.terminator;whiteSpace=wrap;" parent="1" vertex="1">
          <mxGeometry x="420" y="1100" width="100" height="60" as="geometry" />
        </mxCell>
      </root>
    </mxGraphModel>
  </diagram>
</mxfile>
